<svg width="250" height="250" xmlns="http://www.w3.org/2000/svg">
  <defs>
    <pattern id="logoPattern" width="250" height="250" patternUnits="userSpaceOnUse">
      <g transform="scale(0.4) translate(120, 100)" stroke="currentColor" stroke-width="5" fill="none" stroke-linecap="round" stroke-linejoin="round">
        <path d="M0 0 C24.86 22.54 42.72 51.52 51.89 83.86 C52.08 84.52 52.27 85.19 52.47 85.88 C53.1 88.22 53.66 90.56 54.2 92.92 C54.6 94.59 54.6 94.59 55 96.29 C57.24 106.77 57.67 116.92 57.59 127.62 C57.58 130.42 57.59 133.21 57.61 136.01 C57.63 147.02 56.72 157.19 54.2 167.92 C53.9 169.29 53.9 169.29 53.58 170.7 C46.15 202.9 29.83 230.13 7.2 253.92 C6.33 254.87 6.33 254.87 5.44 255.84 C-9.68 271.84 -31.38 286.35 -52.79 291.92 C-52.02 314.77 -49.18 337 -32.57 354.22 C-30.03 356.51 -27.74 358.49 -24.62 359.91 C-22.79 360.92 -22.79 360.92 -21.79 363.92 C-24.3 367.69 -26.67 368.05 -30.85 369.05 C-31.56 369.22 -32.27 369.39 -33 369.56 C-55.38 374.58 -77.68 371.32 -97.67 359.91 C-118.04 346.91 -130.27 327.15 -135.79 303.92 C-136.78 304.25 -137.77 304.58 -138.79 304.92 C-140.46 304.26 -142.12 303.59 -143.79 302.92 C-154.04 300.23 -154.04 300.23 -163.87 303.01 C-165.31 303.94 -166.74 304.89 -168.16 305.86 C-168.9 306.31 -169.64 306.76 -170.39 307.22 C-174.29 309.82 -174.29 309.82 -176.34 313.88 C-176.41 316.31 -176.17 318.52 -175.79 320.92 C-175.65 321.85 -175.51 322.78 -175.37 323.74 C-174.85 326.9 -174.23 330.03 -173.6 333.17 C-173.27 334.88 -173.27 334.88 -172.93 336.62 C-171.67 342.95 -170.25 349.22 -168.65 355.48 C-162.73 378.64 -162.73 378.64 -167.55 389.01 C-171.49 395.09 -176.32 401.57 -183.56 403.59 C-193.2 405.01 -201.05 404.29 -209.04 398.61 C-213.95 393.81 -217.42 388.62 -218.11 381.7 C-218.17 372.17 -216.71 363.61 -214.29 354.36 C-213.62 351.76 -212.97 349.15 -212.32 346.54 C-212.03 345.41 -211.73 344.28 -211.43 343.12 C-210.8 339.96 -210.67 337.13 -210.79 333.92 C-211.45 333.92 -212.11 333.92 -212.79 333.92 C-212.46 332.6 -212.13 331.28 -211.79 329.92 C-220.17 331.25 -220.17 331.25 -228.48 332.98 C-232.89 334.01 -237.28 334.49 -241.79 334.92 C-241.98 335.46 -242.18 335.99 -242.38 336.55 C-246.71 347.88 -251.77 359.7 -259.79 368.92 C-260.43 369.71 -261.07 370.49 -261.74 371.3 C-277.04 389.29 -296.62 397.8 -319.79 399.92 C-332.15 400.91 -345.47 398.96 -356.79 393.92 C-356.24 389.36 -356.24 389.36 -354.22 387.4 C-353.56 386.97 -352.9 386.55 -352.23 386.11 C-337.61 375.76 -330.41 361.1 -326.79 343.92 C-325.94 338.92 -325.67 333.99 -325.73 328.92 C-325.73 327.79 -325.74 326.65 -325.75 325.48 C-325.76 324.64 -325.78 323.79 -325.79 322.92 C-327.29 322.19 -327.29 322.19 -328.83 321.45 C-341.27 315.38 -353.11 308.83 -363.79 299.92 C-364.32 299.49 -364.84 299.05 -365.39 298.61 C-373.15 292.21 -380.36 285.7 -386.79 277.92 C-387.38 277.22 -387.97 276.52 -388.57 275.79 C-411.41 247.55 -423.27 211.87 -423.1 175.67 C-423.09 174.4 -423.09 173.13 -423.08 171.83 C-422.96 161.89 -422.09 152.58 -419.79 142.92 C-419.6 142.09 -419.41 141.25 -419.22 140.39 C-414.18 118.42 -405.15 99.05 -391.79 80.92 C-391.06 79.93 -390.34 78.94 -389.59 77.92 C-363.42 44.38 -325.76 24.12 -283.85 18.46 C-277.94 17.76 -272 17.52 -266.05 17.56 C-260.27 17.46 -257.86 16.05 -253.79 11.92 C-252.21 10.21 -252.21 10.21 -251.04 8.61 C-249.92 7.28 -249.92 7.28 -248.79 5.92 C-248.13 5.92 -247.47 5.92 -246.79 5.92 C-246.79 5.26 -246.79 4.6 -246.79 3.92 C-245.24 2.5 -243.62 1.16 -241.98 -0.13 C-240.97 -0.94 -239.96 -1.74 -238.92 -2.57 C-238.13 -3.19 -238.13 -3.19 -237.33 -3.83 C-235.89 -4.99 -234.48 -6.18 -233.07 -7.38 C-226.38 -13.06 -219.39 -17.7 -211.79 -22.07 C-210.69 -22.72 -209.6 -23.36 -208.47 -24.03 C-142.08 -62.17 -56.28 -50.08 0 0 Z " transform="translate(432.79, 53.07)"/>
        <path d="M0 0 C1.04 0 2.09 0 3.17 0 C29.32 0.4 56.44 10.1 76.31 27.31 C76.8 27.72 77.28 28.14 77.79 28.57 C97.08 45.19 110.98 67.21 116.31 92.31 C116.49 93.09 116.67 93.88 116.85 94.68 C118.54 102.75 118.71 110.78 118.68 119 C118.68 119.71 118.68 120.42 118.68 121.15 C118.64 131.72 118.04 141.27 114.31 151.31 C114.04 152.05 113.77 152.8 113.5 153.56 C110.54 161.73 107.27 169.58 103.31 177.31 C102.65 177.31 101.99 177.31 101.31 177.31 C101.06 178.19 100.82 179.07 100.56 179.98 C98.42 185.67 94.24 189.75 90.31 194.31 C89.64 195.14 88.97 195.97 88.28 196.82 C70.63 217.89 41.92 231.33 14.82 234.11 C-0.93 235.34 -17.52 235.46 -32.43 229.56 C-36.15 228.12 -36.15 228.12 -39.68 229.31 C-53.58 243.86 -55.29 266.22 -55.12 285.31 C-55.12 286.07 -55.11 286.83 -55.11 287.61 C-55.01 303.96 -52.61 319.19 -48.86 335.09 C-48.62 336.1 -48.62 336.1 -48.38 337.13 C-47.6 340.42 -46.8 343.7 -45.97 346.98 C-43.37 357.5 -42.03 367.18 -46.68 377.31 C-50.6 383.47 -55.53 387.58 -62.68 389.31 C-70.33 390.21 -77.41 390.16 -83.68 385.31 C-89.31 380.23 -92.26 374.6 -93 367.06 C-93.33 356.94 -91.27 348.01 -88.68 338.31 C-80.58 307.39 -74.37 267.27 -90.95 238.07 C-95.25 231.21 -100.79 225.36 -106.38 219.54 C-117.23 207.81 -120.17 193 -119.98 177.55 C-119.97 176.27 -119.97 175 -119.96 173.69 C-119.95 170.35 -119.92 167.01 -119.89 163.67 C-119.86 160.24 -119.84 156.81 -119.83 153.39 C-119.8 146.69 -119.75 140 -119.68 133.31 C-121 133.31 -122.32 133.31 -123.68 133.31 C-123.68 130.34 -123.68 127.37 -123.68 124.31 C-122.03 124.31 -120.38 124.31 -118.68 124.31 C-118.72 123.18 -118.75 122.04 -118.79 120.88 C-118.82 119.4 -118.84 117.91 -118.87 116.43 C-118.9 115.69 -118.92 114.94 -118.95 114.17 C-118.98 112 -118.98 112 -118.68 108.31 C-114.7 105.65 -111.24 106.04 -106.62 106.08 C-105.69 106.08 -104.77 106.08 -103.81 106.08 C-100.74 106.08 -97.68 106.1 -94.61 106.11 C-92.48 106.12 -90.36 106.12 -88.23 106.12 C-82.63 106.13 -77.04 106.15 -71.44 106.17 C-65.73 106.19 -60.02 106.2 -54.31 106.21 C-43.1 106.23 -31.89 106.27 -20.68 106.31 C-20.69 105.21 -20.7 104.11 -20.71 102.97 C-20.69 99.7 -20.35 97.28 -19.44 94.16 C-19.18 93.24 -18.92 92.31 -18.65 91.36 C-18.23 89.94 -18.23 89.94 -17.81 88.5 C-15.78 81.47 -14 74.5 -12.68 67.31 C-12.02 67.31 -11.36 67.31 -10.68 67.31 C-10.5 65.79 -10.5 65.79 -10.32 64.24 C-10.15 62.89 -9.98 61.53 -9.81 60.18 C-9.73 59.52 -9.65 58.85 -9.57 58.17 C-9.17 55.06 -8.65 52.22 -7.63 49.25 C-6.53 45.82 -6.38 42.91 -6.37 39.31 C-6.34 37.54 -6.34 37.54 -6.32 35.75 C-6.87 30.57 -8.48 27.37 -12.37 23.93 C-16.26 22.02 -19.47 21.31 -23.68 22.31 C-25.65 23.5 -27.33 24.78 -29.04 26.31 C-30.68 27.31 -30.68 27.31 -32.78 27.09 C-34.68 26.31 -34.68 26.31 -36.31 24.25 C-39.58 21.58 -42.08 21.64 -46.21 21.76 C-50.3 22.66 -51.95 25.25 -54.68 28.31 C-58.53 27.94 -60.11 26.05 -62.68 23.31 C-63.67 22.65 -64.66 21.99 -65.68 21.31 C-60.2 17.28 -55.07 13.75 -48.68 11.31 C-48.08 11.01 -47.47 10.72 -46.85 10.42 C-41.82 7.99 -36.65 6.28 -31.31 4.68 C-30.28 4.37 -30.28 4.37 -29.24 4.06 C-19.53 1.25 -10.1 -0.05 0 0 Z " transform="translate(309.68, 65.68)"/>
      </g>
    </pattern>
  </defs>
  <rect width="100%" height="100%" fill="url(#logoPattern)"/>
</svg>